<svg width="32" height="32" viewBox="0 0 32 32" fill="none" xmlns="http://www.w3.org/2000/svg">
<path d="M31 22.0156C31.5522 22.0156 31.9998 22.4631 32 23.0156C32 23.5683 31.5523 24.0166 31 24.0166H25.2803L26.9697 30.7793C27.089 31.3097 26.7634 31.8381 26.2363 31.9697C25.7092 32.1013 25.1739 31.7879 25.0303 31.2637L24.2197 28.0195H7.78027L6.96973 31.2637C6.82605 31.7879 6.29076 32.1013 5.76367 31.9697C5.23656 31.8381 4.91101 31.3097 5.03027 30.7793L6.71973 24.0166H1C0.447715 24.0166 0 23.5683 0 23.0156C0.000192384 22.4631 0.447834 22.0156 1 22.0156H31ZM8.28027 26.0186H23.7197L23.2197 24.0166H8.78027L8.28027 26.0186ZM16 0C16.3784 0 16.724 0.214183 16.8936 0.552734L17.6182 2.00098H27C28.6569 2.00098 30 3.3459 30 5.00391V20.0137H2V5.00391C2 3.3459 3.34315 2.00098 5 2.00098H14.3799L15.1064 0.552734C15.276 0.214183 15.6216 0 16 0Z" fill="white"/>
</svg>
