<svg width="32" height="26" viewBox="0 0 32 26" fill="none" xmlns="http://www.w3.org/2000/svg">
<path d="M32 23C32 24.6569 30.6569 26 29 26H3C1.34315 26 0 24.6569 0 23V11.7002L15.7422 15.8936C15.9112 15.9387 16.0888 15.9387 16.2578 15.8936L32 11.7002V23ZM19 0C20.6569 0 22 1.34315 22 3V4H29C30.6569 4 32 5.34315 32 7V9.76758L16.7725 13.8281C16.2666 13.9628 15.7334 13.9628 15.2275 13.8281L0 9.76758V7C0 5.34315 1.34315 4 3 4H10V3C10 1.34315 11.3431 0 13 0H19ZM13 2C12.4477 2 12 2.44772 12 3V4H20V3C20 2.44772 19.5523 2 19 2H13Z" fill="white"/>
</svg>
